<svg id="visual" viewBox="0 0 900 450" width="900" height="450" xmlns="http://www.w3.org/2000/svg" xmlns:xlink="http://www.w3.org/1999/xlink" version="1.1"><g><g transform="translate(678 200)"><path d="M83.3 -27.5C93.3 3.7 76.6 43.1 46.7 65C16.7 86.9 -26.4 91.4 -55.6 71.4C-84.7 51.4 -99.8 7 -88.2 -26.4C-76.6 -59.8 -38.3 -82.3 -0.8 -82C36.7 -81.8 73.4 -58.8 83.3 -27.5Z" stroke="#FA7268" fill="none" stroke-width="20"></path></g><g transform="translate(290 352)"><path d="M66.1 -20.9C74.3 3.7 61.7 35.7 39.2 51.4C16.6 67.2 -15.8 66.8 -36.3 51.6C-56.8 36.3 -65.2 6.2 -57.2 -18.3C-49.2 -42.7 -24.6 -61.5 2.2 -62.2C28.9 -63 57.9 -45.6 66.1 -20.9Z" stroke="#FA7268" fill="none" stroke-width="20"></path></g></g></svg>