<svg id="visual" viewBox="0 0 900 450" width="900" height="450" xmlns="http://www.w3.org/2000/svg" xmlns:xlink="http://www.w3.org/1999/xlink" version="1.1"><path d="M0 279L10 279.3C20 279.7 40 280.3 60 277.8C80 275.3 100 269.7 120 266.3C140 263 160 262 180 254C200 246 220 231 240 222.2C260 213.3 280 210.7 300 218.2C320 225.7 340 243.3 360 244.2C380 245 400 229 420 225.5C440 222 460 231 480 229.8C500 228.7 520 217.3 540 225.5C560 233.7 580 261.3 600 264.7C620 268 640 247 660 237.3C680 227.7 700 229.3 720 226.3C740 223.3 760 215.7 780 213.3C800 211 820 214 840 221.3C860 228.7 880 240.3 890 246.2L900 252L900 0L890 0C880 0 860 0 840 0C820 0 800 0 780 0C760 0 740 0 720 0C700 0 680 0 660 0C640 0 620 0 600 0C580 0 560 0 540 0C520 0 500 0 480 0C460 0 440 0 420 0C400 0 380 0 360 0C340 0 320 0 300 0C280 0 260 0 240 0C220 0 200 0 180 0C160 0 140 0 120 0C100 0 80 0 60 0C40 0 20 0 10 0L0 0Z" fill="#fa7268"></path><path d="M0 165L10 171.8C20 178.7 40 192.3 60 193.3C80 194.3 100 182.7 120 178.2C140 173.7 160 176.3 180 177.7C200 179 220 179 240 186.5C260 194 280 209 300 218.3C320 227.7 340 231.3 360 231.5C380 231.7 400 228.3 420 224.8C440 221.3 460 217.7 480 212.8C500 208 520 202 540 204.2C560 206.3 580 216.7 600 211.7C620 206.7 640 186.3 660 189C680 191.7 700 217.3 720 219.8C740 222.3 760 201.7 780 190.2C800 178.7 820 176.3 840 183.2C860 190 880 206 890 214L900 222L900 0L890 0C880 0 860 0 840 0C820 0 800 0 780 0C760 0 740 0 720 0C700 0 680 0 660 0C640 0 620 0 600 0C580 0 560 0 540 0C520 0 500 0 480 0C460 0 440 0 420 0C400 0 380 0 360 0C340 0 320 0 300 0C280 0 260 0 240 0C220 0 200 0 180 0C160 0 140 0 120 0C100 0 80 0 60 0C40 0 20 0 10 0L0 0Z" fill="#e34c67"></path><path d="M0 136L10 137C20 138 40 140 60 140.8C80 141.7 100 141.3 120 144.7C140 148 160 155 180 158C200 161 220 160 240 156C260 152 280 145 300 149.8C320 154.7 340 171.3 360 181.7C380 192 400 196 420 187.2C440 178.3 460 156.7 480 145.5C500 134.3 520 133.7 540 134C560 134.3 580 135.7 600 146.3C620 157 640 177 660 178.7C680 180.3 700 163.7 720 161.5C740 159.3 760 171.7 780 180.8C800 190 820 196 840 191C860 186 880 170 890 162L900 154L900 0L890 0C880 0 860 0 840 0C820 0 800 0 780 0C760 0 740 0 720 0C700 0 680 0 660 0C640 0 620 0 600 0C580 0 560 0 540 0C520 0 500 0 480 0C460 0 440 0 420 0C400 0 380 0 360 0C340 0 320 0 300 0C280 0 260 0 240 0C220 0 200 0 180 0C160 0 140 0 120 0C100 0 80 0 60 0C40 0 20 0 10 0L0 0Z" fill="#c62368"></path><path d="M0 144L10 137.8C20 131.7 40 119.3 60 116.7C80 114 100 121 120 123.3C140 125.7 160 123.3 180 120.2C200 117 220 113 240 110.2C260 107.3 280 105.7 300 112C320 118.3 340 132.7 360 134.5C380 136.3 400 125.7 420 124C440 122.3 460 129.7 480 135.2C500 140.7 520 144.3 540 140.8C560 137.3 580 126.7 600 124.5C620 122.3 640 128.7 660 133.2C680 137.7 700 140.3 720 135C740 129.7 760 116.3 780 111.2C800 106 820 109 840 115.7C860 122.3 880 132.7 890 137.8L900 143L900 0L890 0C880 0 860 0 840 0C820 0 800 0 780 0C760 0 740 0 720 0C700 0 680 0 660 0C640 0 620 0 600 0C580 0 560 0 540 0C520 0 500 0 480 0C460 0 440 0 420 0C400 0 380 0 360 0C340 0 320 0 300 0C280 0 260 0 240 0C220 0 200 0 180 0C160 0 140 0 120 0C100 0 80 0 60 0C40 0 20 0 10 0L0 0Z" fill="#c62368"></path><path d="M0 102L10 95.8C20 89.7 40 77.3 60 76C80 74.7 100 84.3 120 92.3C140 100.3 160 106.7 180 108.8C200 111 220 109 240 108.8C260 108.7 280 110.3 300 110.8C320 111.3 340 110.7 360 108C380 105.3 400 100.7 420 95.3C440 90 460 84 480 85C500 86 520 94 540 93C560 92 580 82 600 77.8C620 73.7 640 75.3 660 80.3C680 85.3 700 93.7 720 96.3C740 99 760 96 780 95C800 94 820 95 840 95.8C860 96.7 880 97.3 890 97.7L900 98L900 0L890 0C880 0 860 0 840 0C820 0 800 0 780 0C760 0 740 0 720 0C700 0 680 0 660 0C640 0 620 0 600 0C580 0 560 0 540 0C520 0 500 0 480 0C460 0 440 0 420 0C400 0 380 0 360 0C340 0 320 0 300 0C280 0 260 0 240 0C220 0 200 0 180 0C160 0 140 0 120 0C100 0 80 0 60 0C40 0 20 0 10 0L0 0Z" fill="#e34c67"></path><path d="M0 33L10 37.2C20 41.3 40 49.7 60 55.5C80 61.3 100 64.7 120 61.5C140 58.3 160 48.7 180 48.2C200 47.7 220 56.3 240 55C260 53.7 280 42.3 300 41.5C320 40.7 340 50.3 360 56.3C380 62.3 400 64.7 420 61.8C440 59 460 51 480 45C500 39 520 35 540 37.2C560 39.3 580 47.7 600 48C620 48.3 640 40.7 660 38.3C680 36 700 39 720 40.8C740 42.7 760 43.3 780 47.7C800 52 820 60 840 58.7C860 57.3 880 46.7 890 41.3L900 36L900 0L890 0C880 0 860 0 840 0C820 0 800 0 780 0C760 0 740 0 720 0C700 0 680 0 660 0C640 0 620 0 600 0C580 0 560 0 540 0C520 0 500 0 480 0C460 0 440 0 420 0C400 0 380 0 360 0C340 0 320 0 300 0C280 0 260 0 240 0C220 0 200 0 180 0C160 0 140 0 120 0C100 0 80 0 60 0C40 0 20 0 10 0L0 0Z" fill="#fa7268"></path></svg>