<svg id="visual" viewBox="0 0 900 450" width="900" height="450" xmlns="http://www.w3.org/2000/svg" xmlns:xlink="http://www.w3.org/1999/xlink" version="1.1"><path d="M0 252L9.3 243.7C18.7 235.3 37.3 218.7 56.2 206.3C75 194 94 186 112.8 183.5C131.7 181 150.3 184 169 191.5C187.7 199 206.3 211 225 214.7C243.7 218.3 262.3 213.7 281.2 208C300 202.3 319 195.7 337.8 194C356.7 192.3 375.3 195.7 394 198.7C412.7 201.7 431.3 204.3 450 203C468.7 201.7 487.3 196.3 506.2 193.5C525 190.7 544 190.3 562.8 199C581.7 207.7 600.3 225.3 619 226.7C637.7 228 656.3 213 675 211.7C693.7 210.3 712.3 222.7 731.2 229.3C750 236 769 237 787.8 238.2C806.7 239.3 825.3 240.7 844 244.2C862.7 247.7 881.3 253.3 890.7 256.2L900 259L900 0L890.7 0C881.3 0 862.7 0 844 0C825.3 0 806.7 0 787.8 0C769 0 750 0 731.2 0C712.3 0 693.7 0 675 0C656.3 0 637.7 0 619 0C600.3 0 581.7 0 562.8 0C544 0 525 0 506.2 0C487.3 0 468.7 0 450 0C431.3 0 412.7 0 394 0C375.3 0 356.7 0 337.8 0C319 0 300 0 281.2 0C262.3 0 243.7 0 225 0C206.3 0 187.7 0 169 0C150.3 0 131.7 0 112.8 0C94 0 75 0 56.2 0C37.3 0 18.7 0 9.3 0L0 0Z" fill="#009473"></path><path d="M0 181L9.3 178C18.7 175 37.3 169 56.2 166.7C75 164.3 94 165.7 112.8 165.3C131.7 165 150.3 163 169 167.7C187.7 172.3 206.3 183.7 225 192.8C243.7 202 262.3 209 281.2 212.2C300 215.3 319 214.7 337.8 202.8C356.7 191 375.3 168 394 162.3C412.7 156.7 431.3 168.3 450 177C468.7 185.7 487.3 191.3 506.2 187.7C525 184 544 171 562.8 172.2C581.7 173.3 600.3 188.7 619 189.8C637.7 191 656.3 178 675 176.3C693.7 174.7 712.3 184.3 731.2 194.2C750 204 769 214 787.8 206C806.7 198 825.3 172 844 172C862.7 172 881.3 198 890.7 211L900 224L900 0L890.7 0C881.3 0 862.7 0 844 0C825.3 0 806.7 0 787.8 0C769 0 750 0 731.2 0C712.3 0 693.7 0 675 0C656.3 0 637.7 0 619 0C600.3 0 581.7 0 562.8 0C544 0 525 0 506.2 0C487.3 0 468.7 0 450 0C431.3 0 412.7 0 394 0C375.3 0 356.7 0 337.8 0C319 0 300 0 281.2 0C262.3 0 243.7 0 225 0C206.3 0 187.7 0 169 0C150.3 0 131.7 0 112.8 0C94 0 75 0 56.2 0C37.3 0 18.7 0 9.3 0L0 0Z" fill="#47ab73"></path><path d="M0 131L9.3 138.8C18.7 146.7 37.3 162.3 56.2 171.3C75 180.3 94 182.7 112.8 172.2C131.7 161.7 150.3 138.3 169 127C187.7 115.7 206.3 116.3 225 118.8C243.7 121.3 262.3 125.7 281.2 129C300 132.3 319 134.7 337.8 144.2C356.7 153.7 375.3 170.3 394 177C412.7 183.7 431.3 180.3 450 168C468.7 155.7 487.3 134.3 506.2 135.8C525 137.3 544 161.7 562.8 165.8C581.7 170 600.3 154 619 143.3C637.7 132.7 656.3 127.3 675 129.8C693.7 132.3 712.3 142.7 731.2 153.2C750 163.7 769 174.3 787.8 173.7C806.7 173 825.3 161 844 153C862.7 145 881.3 141 890.7 139L900 137L900 0L890.7 0C881.3 0 862.7 0 844 0C825.3 0 806.7 0 787.8 0C769 0 750 0 731.2 0C712.3 0 693.7 0 675 0C656.3 0 637.7 0 619 0C600.3 0 581.7 0 562.8 0C544 0 525 0 506.2 0C487.3 0 468.7 0 450 0C431.3 0 412.7 0 394 0C375.3 0 356.7 0 337.8 0C319 0 300 0 281.2 0C262.3 0 243.7 0 225 0C206.3 0 187.7 0 169 0C150.3 0 131.7 0 112.8 0C94 0 75 0 56.2 0C37.3 0 18.7 0 9.3 0L0 0Z" fill="#77c270"></path><path d="M0 143L9.3 136.8C18.7 130.7 37.3 118.3 56.2 117.5C75 116.7 94 127.3 112.8 130.5C131.7 133.7 150.3 129.3 169 129.2C187.7 129 206.3 133 225 131.3C243.7 129.7 262.3 122.3 281.2 121.3C300 120.3 319 125.7 337.8 129.7C356.7 133.7 375.3 136.3 394 132.8C412.7 129.3 431.3 119.7 450 113.5C468.7 107.3 487.3 104.7 506.2 98.8C525 93 544 84 562.8 80.7C581.7 77.3 600.3 79.7 619 82C637.7 84.3 656.3 86.7 675 91.2C693.7 95.7 712.3 102.3 731.2 104.2C750 106 769 103 787.8 97C806.7 91 825.3 82 844 79.2C862.7 76.3 881.3 79.7 890.7 81.3L900 83L900 0L890.7 0C881.3 0 862.7 0 844 0C825.3 0 806.7 0 787.8 0C769 0 750 0 731.2 0C712.3 0 693.7 0 675 0C656.3 0 637.7 0 619 0C600.3 0 581.7 0 562.8 0C544 0 525 0 506.2 0C487.3 0 468.7 0 450 0C431.3 0 412.7 0 394 0C375.3 0 356.7 0 337.8 0C319 0 300 0 281.2 0C262.3 0 243.7 0 225 0C206.3 0 187.7 0 169 0C150.3 0 131.7 0 112.8 0C94 0 75 0 56.2 0C37.3 0 18.7 0 9.3 0L0 0Z" fill="#77c270"></path><path d="M0 99L9.3 92.5C18.7 86 37.3 73 56.2 68.7C75 64.3 94 68.7 112.8 72.7C131.7 76.7 150.3 80.3 169 80.7C187.7 81 206.3 78 225 80C243.7 82 262.3 89 281.2 94C300 99 319 102 337.8 104C356.7 106 375.3 107 394 106C412.7 105 431.3 102 450 92C468.7 82 487.3 65 506.2 61C525 57 544 66 562.8 66.2C581.7 66.3 600.3 57.7 619 59C637.7 60.3 656.3 71.7 675 77.8C693.7 84 712.3 85 731.2 82.5C750 80 769 74 787.8 73C806.7 72 825.3 76 844 76.2C862.7 76.3 881.3 72.7 890.7 70.8L900 69L900 0L890.7 0C881.3 0 862.7 0 844 0C825.3 0 806.7 0 787.8 0C769 0 750 0 731.2 0C712.3 0 693.7 0 675 0C656.3 0 637.7 0 619 0C600.3 0 581.7 0 562.8 0C544 0 525 0 506.2 0C487.3 0 468.7 0 450 0C431.3 0 412.7 0 394 0C375.3 0 356.7 0 337.8 0C319 0 300 0 281.2 0C262.3 0 243.7 0 225 0C206.3 0 187.7 0 169 0C150.3 0 131.7 0 112.8 0C94 0 75 0 56.2 0C37.3 0 18.7 0 9.3 0L0 0Z" fill="#47ab73"></path><path d="M0 33L9.3 39.3C18.7 45.7 37.3 58.3 56.2 58.2C75 58 94 45 112.8 36.3C131.7 27.7 150.3 23.3 169 19.7C187.7 16 206.3 13 225 20.8C243.7 28.7 262.3 47.3 281.2 56.7C300 66 319 66 337.8 57.7C356.7 49.3 375.3 32.7 394 24.3C412.7 16 431.3 16 450 21.7C468.7 27.3 487.3 38.7 506.2 40C525 41.3 544 32.7 562.8 35C581.7 37.3 600.3 50.7 619 48.5C637.7 46.3 656.3 28.7 675 23.2C693.7 17.7 712.3 24.3 731.2 30.7C750 37 769 43 787.8 44C806.7 45 825.3 41 844 41.8C862.7 42.7 881.3 48.3 890.7 51.2L900 54L900 0L890.7 0C881.3 0 862.7 0 844 0C825.3 0 806.7 0 787.8 0C769 0 750 0 731.2 0C712.3 0 693.7 0 675 0C656.3 0 637.7 0 619 0C600.3 0 581.7 0 562.8 0C544 0 525 0 506.2 0C487.3 0 468.7 0 450 0C431.3 0 412.7 0 394 0C375.3 0 356.7 0 337.8 0C319 0 300 0 281.2 0C262.3 0 243.7 0 225 0C206.3 0 187.7 0 169 0C150.3 0 131.7 0 112.8 0C94 0 75 0 56.2 0C37.3 0 18.7 0 9.3 0L0 0Z" fill="#009473"></path></svg>