<svg id="visual" viewBox="0 0 900 450" width="900" height="450" xmlns="http://www.w3.org/2000/svg" xmlns:xlink="http://www.w3.org/1999/xlink" version="1.1"><rect x="0" y="0" width="900" height="450" fill="#001220"></rect><path d="M0 372L10 373.3C20 374.7 40 377.3 60 342.2C80 307 100 234 120 216.5C140 199 160 237 180 275.3C200 313.7 220 352.3 240 365.7C260 379 280 367 300 358.5C320 350 340 345 360 339.7C380 334.3 400 328.7 420 306.5C440 284.3 460 245.7 480 240.3C500 235 520 263 540 257.8C560 252.7 580 214.3 600 208C620 201.7 640 227.3 660 226.3C680 225.3 700 197.7 720 207.2C740 216.7 760 263.3 780 283.2C800 303 820 296 840 301.3C860 306.7 880 324.3 890 333.2L900 342L900 0L890 0C880 0 860 0 840 0C820 0 800 0 780 0C760 0 740 0 720 0C700 0 680 0 660 0C640 0 620 0 600 0C580 0 560 0 540 0C520 0 500 0 480 0C460 0 440 0 420 0C400 0 380 0 360 0C340 0 320 0 300 0C280 0 260 0 240 0C220 0 200 0 180 0C160 0 140 0 120 0C100 0 80 0 60 0C40 0 20 0 10 0L0 0Z" fill="#c62368"></path><path d="M0 229L10 230C20 231 40 233 60 247.5C80 262 100 289 120 302.2C140 315.3 160 314.7 180 308.7C200 302.7 220 291.3 240 293.8C260 296.3 280 312.7 300 304C320 295.3 340 261.7 360 253.3C380 245 400 262 420 276.2C440 290.3 460 301.7 480 291.7C500 281.7 520 250.3 540 236.8C560 223.3 580 227.7 600 226.3C620 225 640 218 660 210.2C680 202.3 700 193.7 720 187C740 180.3 760 175.7 780 183.7C800 191.7 820 212.3 840 223.7C860 235 880 237 890 238L900 239L900 0L890 0C880 0 860 0 840 0C820 0 800 0 780 0C760 0 740 0 720 0C700 0 680 0 660 0C640 0 620 0 600 0C580 0 560 0 540 0C520 0 500 0 480 0C460 0 440 0 420 0C400 0 380 0 360 0C340 0 320 0 300 0C280 0 260 0 240 0C220 0 200 0 180 0C160 0 140 0 120 0C100 0 80 0 60 0C40 0 20 0 10 0L0 0Z" fill="#d23467"></path><path d="M0 137L10 156.5C20 176 40 215 60 221C80 227 100 200 120 175.2C140 150.3 160 127.7 180 144.8C200 162 220 219 240 238C260 257 280 238 300 211.7C320 185.3 340 151.7 360 136.2C380 120.7 400 123.3 420 145.3C440 167.3 460 208.7 480 222.3C500 236 520 222 540 201.7C560 181.3 580 154.7 600 149.7C620 144.7 640 161.3 660 156.8C680 152.3 700 126.7 720 141C740 155.3 760 209.7 780 228.2C800 246.7 820 229.3 840 219.2C860 209 880 206 890 204.5L900 203L900 0L890 0C880 0 860 0 840 0C820 0 800 0 780 0C760 0 740 0 720 0C700 0 680 0 660 0C640 0 620 0 600 0C580 0 560 0 540 0C520 0 500 0 480 0C460 0 440 0 420 0C400 0 380 0 360 0C340 0 320 0 300 0C280 0 260 0 240 0C220 0 200 0 180 0C160 0 140 0 120 0C100 0 80 0 60 0C40 0 20 0 10 0L0 0Z" fill="#de4467"></path><path d="M0 154L10 154.7C20 155.3 40 156.7 60 154.8C80 153 100 148 120 140.2C140 132.3 160 121.7 180 110.8C200 100 220 89 240 107.3C260 125.7 280 173.3 300 193.2C320 213 340 205 360 198.3C380 191.7 400 186.3 420 174.5C440 162.7 460 144.3 480 140.8C500 137.3 520 148.7 540 139.5C560 130.3 580 100.7 600 85C620 69.3 640 67.7 660 79.7C680 91.7 700 117.3 720 138C740 158.7 760 174.3 780 173C800 171.7 820 153.3 840 144.7C860 136 880 137 890 137.5L900 138L900 0L890 0C880 0 860 0 840 0C820 0 800 0 780 0C760 0 740 0 720 0C700 0 680 0 660 0C640 0 620 0 600 0C580 0 560 0 540 0C520 0 500 0 480 0C460 0 440 0 420 0C400 0 380 0 360 0C340 0 320 0 300 0C280 0 260 0 240 0C220 0 200 0 180 0C160 0 140 0 120 0C100 0 80 0 60 0C40 0 20 0 10 0L0 0Z" fill="#e85467"></path><path d="M0 151L10 143.7C20 136.3 40 121.7 60 112C80 102.3 100 97.7 120 90.3C140 83 160 73 180 63.8C200 54.7 220 46.3 240 53.3C260 60.3 280 82.7 300 98.5C320 114.3 340 123.7 360 113C380 102.3 400 71.7 420 75.7C440 79.7 460 118.3 480 137.2C500 156 520 155 540 155.5C560 156 580 158 600 149.3C620 140.7 640 121.3 660 121.8C680 122.3 700 142.7 720 138.2C740 133.7 760 104.3 780 99.2C800 94 820 113 840 118.8C860 124.7 880 117.3 890 113.7L900 110L900 0L890 0C880 0 860 0 840 0C820 0 800 0 780 0C760 0 740 0 720 0C700 0 680 0 660 0C640 0 620 0 600 0C580 0 560 0 540 0C520 0 500 0 480 0C460 0 440 0 420 0C400 0 380 0 360 0C340 0 320 0 300 0C280 0 260 0 240 0C220 0 200 0 180 0C160 0 140 0 120 0C100 0 80 0 60 0C40 0 20 0 10 0L0 0Z" fill="#f16367"></path><path d="M0 31L10 41.2C20 51.3 40 71.7 60 69C80 66.3 100 40.7 120 39.8C140 39 160 63 180 74.5C200 86 220 85 240 78.7C260 72.3 280 60.7 300 63.8C320 67 340 85 360 86.5C380 88 400 73 420 61.3C440 49.7 460 41.3 480 44.2C500 47 520 61 540 58.7C560 56.3 580 37.7 600 28.3C620 19 640 19 660 17.7C680 16.3 700 13.7 720 23.5C740 33.3 760 55.7 780 62.2C800 68.7 820 59.3 840 62.8C860 66.3 880 82.7 890 90.8L900 99L900 0L890 0C880 0 860 0 840 0C820 0 800 0 780 0C760 0 740 0 720 0C700 0 680 0 660 0C640 0 620 0 600 0C580 0 560 0 540 0C520 0 500 0 480 0C460 0 440 0 420 0C400 0 380 0 360 0C340 0 320 0 300 0C280 0 260 0 240 0C220 0 200 0 180 0C160 0 140 0 120 0C100 0 80 0 60 0C40 0 20 0 10 0L0 0Z" fill="#fa7268"></path></svg>